<?xml version="1.0" standalone="no"?>
<!DOCTYPE svg PUBLIC "-//W3C//DTD SVG 20010904//EN"
 "http://www.w3.org/TR/2001/REC-SVG-20010904/DTD/svg10.dtd">
<svg version="1.0" xmlns="http://www.w3.org/2000/svg"
 width="256.000000pt" height="229.000000pt" viewBox="0 0 256.000000 229.000000"
 preserveAspectRatio="xMidYMid meet">

<g transform="translate(0.000000,229.000000) scale(0.100000,-0.100000)"
fill="#000000" stroke="none">
<path d="M1166 2264 c-13 -12 -16 -41 -16 -148 0 -89 4 -136 12 -144 7 -7 43
-12 93 -12 50 0 86 5 93 12 8 8 12 55 12 144 0 163 -1 164 -105 164 -54 0 -78
-4 -89 -16z"/>
<path d="M912 2218 c-38 -15 -54 -27 -58 -45 -9 -34 73 -260 98 -274 27 -15
145 27 166 59 13 21 12 31 -23 130 -20 59 -44 117 -51 130 -18 28 -60 28 -132
0z"/>
<path d="M1472 2227 c-13 -15 -92 -232 -92 -250 0 -7 4 -18 9 -25 12 -19 135
-62 159 -55 21 5 38 39 87 175 36 102 31 119 -41 147 -64 24 -107 27 -122 8z"/>
<path d="M690 2094 c-49 -33 -100 -88 -100 -109 0 -27 157 -214 186 -221 25
-6 44 5 104 60 59 55 59 56 -64 201 -52 61 -75 81 -96 84 -3 1 -17 -6 -30 -15z"/>
<path d="M1753 2093 c-49 -45 -163 -193 -163 -212 0 -22 26 -51 88 -99 47 -36
67 -25 157 83 106 126 107 131 12 207 -55 43 -67 45 -94 21z"/>
<path d="M478 1868 c-24 -20 -68 -104 -68 -131 0 -31 16 -44 135 -111 72 -40
106 -54 123 -50 14 4 35 30 58 71 48 86 44 94 -93 172 -113 64 -129 69 -155
49z"/>
<path d="M1877 1818 c-65 -36 -113 -70 -119 -84 -9 -19 -4 -34 26 -87 23 -41
44 -67 58 -71 17 -4 51 10 123 50 120 67 135 80 135 112 0 25 -53 120 -74 134
-21 15 -42 7 -149 -54z"/>
<path d="M1144 1829 c21 -70 26 -107 20 -144 -3 -22 -8 -43 -10 -46 -2 -4 -23
13 -48 37 -24 24 -48 44 -55 44 -6 0 -11 -18 -11 -42 0 -62 -17 -115 -57 -180
-32 -52 -35 -63 -31 -114 4 -48 10 -62 36 -85 17 -15 55 -35 84 -45 70 -22
310 -31 364 -14 160 50 201 193 97 343 -14 20 -29 37 -33 37 -4 0 -11 -15 -14
-34 -6 -34 -46 -86 -66 -86 -5 0 -10 17 -10 38 0 21 -7 65 -15 97 -18 70 -59
114 -159 170 -92 51 -101 53 -92 24z"/>
<path d="M339 1563 c-6 -15 -13 -55 -16 -88 -4 -48 -2 -63 10 -74 9 -7 75 -22
146 -33 151 -24 154 -23 170 53 15 71 14 104 -6 121 -18 15 -193 48 -258 48
-29 0 -37 -5 -46 -27z"/>
<path d="M1974 1571 c-50 -9 -99 -22 -108 -30 -19 -16 -20 -50 -5 -120 16 -76
19 -77 171 -53 72 12 137 27 146 34 18 15 9 131 -14 166 -17 27 -53 27 -190 3z"/>
<path d="M2115 1259 c-319 -43 -566 -76 -900 -119 -121 -16 -344 -45 -495 -65
-151 -20 -360 -47 -465 -61 -280 -36 -265 -32 -247 -61 8 -13 48 -8 997 117
127 17 318 42 425 56 107 14 310 41 450 59 140 19 325 44 410 55 180 24 182
24 174 45 -8 20 -10 20 -349 -26z"/>
<path d="M1953 1150 c-47 -19 -52 -65 -28 -251 23 -173 34 -219 62 -247 21
-21 30 -23 66 -18 59 9 77 34 77 108 0 65 -36 326 -50 363 -19 51 -69 68 -127
45z m84 -102 c15 -64 44 -315 37 -332 -3 -8 -13 -17 -21 -20 -38 -15 -51 25
-78 237 -18 141 -14 169 24 165 22 -3 28 -10 38 -50z"/>
<path d="M1768 1123 l-38 -4 1 -82 c0 -122 15 -426 20 -432 3 -2 15 -2 27 2
20 5 22 12 22 73 0 64 1 68 25 72 26 5 30 -2 50 -100 6 -30 10 -33 33 -27 15
4 28 7 29 8 6 7 -114 491 -122 492 -5 1 -27 0 -47 -2z m52 -201 c12 -57 20
-105 19 -106 -2 -2 -13 -6 -25 -10 -20 -6 -21 -2 -27 76 -16 197 -4 211 33 40z"/>
<path d="M1590 1073 c0 -16 13 -127 30 -248 16 -121 30 -223 30 -227 0 -11 48
-10 54 0 3 5 -8 105 -25 223 -42 304 -36 279 -64 279 -21 0 -25 -5 -25 -27z"/>
<path d="M1391 1066 c-28 -34 -23 -149 16 -368 19 -109 39 -138 94 -138 64 0
89 33 89 114 0 80 -6 96 -37 96 -24 0 -24 -1 -17 -60 7 -62 -3 -90 -33 -90
-23 0 -42 60 -58 189 -21 157 -18 215 11 219 23 3 38 -24 50 -90 5 -32 10 -38
31 -38 25 0 26 1 19 57 -4 32 -15 71 -24 88 -16 27 -24 30 -73 33 -40 2 -59
-1 -68 -12z"/>
<path d="M1090 1033 c-47 -17 -50 -67 -19 -288 24 -171 37 -211 74 -225 35
-13 101 4 115 30 19 36 9 183 -26 365 -21 108 -33 125 -87 124 -23 0 -49 -3
-57 -6z m69 -57 c20 -23 66 -343 55 -378 -10 -32 -56 -20 -66 17 -27 95 -48
351 -31 368 10 11 30 8 42 -7z"/>
<path d="M895 1001 c-16 -3 -30 -11 -30 -16 1 -6 4 -119 9 -252 l8 -243 29 0
29 0 0 69 c0 54 4 70 16 75 33 13 34 11 58 -96 5 -23 12 -28 37 -28 24 0 29 3
25 18 -3 9 -19 78 -36 152 -72 319 -74 325 -95 326 -11 1 -33 -1 -50 -5z m61
-187 c12 -60 21 -112 18 -116 -3 -4 -13 -8 -23 -8 -15 0 -19 11 -25 61 -8 79
-8 184 0 176 4 -3 17 -54 30 -113z"/>
<path d="M727 973 c-3 -5 1 -46 8 -93 7 -47 23 -157 35 -245 12 -88 23 -161
25 -163 1 -2 15 0 29 4 18 4 25 11 22 23 -2 9 -7 43 -11 76 -6 59 -40 310 -51
373 -4 26 -10 32 -29 32 -13 0 -26 -3 -28 -7z"/>
<path d="M552 960 c-41 -17 -47 -50 -34 -178 19 -190 41 -292 69 -320 21 -21
31 -24 66 -19 59 8 77 34 77 112 0 79 -6 95 -36 95 -23 0 -24 -2 -17 -61 5
-53 4 -64 -12 -75 -11 -8 -23 -14 -27 -14 -17 0 -36 66 -52 185 -21 148 -19
218 8 223 26 5 34 -7 46 -68 12 -63 12 -64 40 -55 20 6 21 11 15 53 -8 55 -31
113 -48 124 -16 10 -66 9 -95 -2z"/>
<path d="M2370 635 c-47 -7 -227 -32 -400 -54 -173 -23 -414 -55 -535 -71
-121 -16 -465 -61 -765 -100 -300 -38 -555 -72 -567 -75 -15 -4 -20 -10 -16
-25 4 -17 11 -19 37 -15 48 7 296 41 551 74 208 27 422 55 1375 181 162 21
340 44 395 50 55 7 102 13 104 15 2 2 1 11 -2 20 -8 18 -55 18 -177 0z"/>
<path d="M1527 413 c-9 -8 -9 -225 -1 -287 9 -62 32 -62 36 1 2 34 8 49 19 51
12 2 18 -9 25 -40 6 -30 15 -44 28 -46 22 -5 23 -8 -25 196 -29 120 -33 132
-53 132 -13 0 -26 -3 -29 -7z m42 -90 c5 -21 13 -55 17 -75 6 -34 4 -38 -15
-38 -19 0 -21 5 -21 75 0 41 2 75 5 75 2 0 9 -17 14 -37z"/>
<path d="M1363 393 c-41 -8 -27 -33 17 -33 25 0 40 -5 40 -13 0 -6 -9 -59 -20
-117 -11 -58 -20 -120 -20 -138 l0 -33 48 6 c64 9 72 12 72 30 0 11 -11 15
-43 15 l-44 0 23 123 c32 169 32 167 -13 166 -21 -1 -48 -4 -60 -6z"/>
<path d="M1212 369 c-33 -13 -18 -29 27 -29 l38 0 -23 -117 c-25 -126 -29
-169 -16 -177 5 -3 30 -2 58 2 35 5 50 12 52 25 3 14 -4 17 -37 17 -49 0 -49
-7 -16 160 14 69 25 126 25 128 0 6 -88 0 -108 -9z"/>
<path d="M1130 336 c0 -26 28 -246 36 -283 6 -31 34 -30 34 0 0 23 -24 208
-35 275 -7 38 -35 45 -35 8z"/>
<path d="M998 343 c-10 -2 -18 -12 -18 -21 0 -33 40 -293 46 -303 14 -23 27 1
28 51 1 49 3 55 26 60 23 5 25 11 28 71 2 36 -3 83 -10 104 -12 36 -17 40 -48
42 -19 0 -43 -1 -52 -4z m73 -63 c14 -49 10 -110 -7 -117 -24 -9 -32 7 -40 80
-7 68 -7 69 17 65 15 -2 26 -12 30 -28z"/>
</g>
</svg>
